<?xml version="1.0" encoding="iso-8859-1"?>
<!-- Generator: Adobe Illustrator 19.0.0, SVG Export Plug-In . SVG Version: 6.00 Build 0)  -->
<svg version="1.1" fill="#000" id="Capa_1" xmlns="http://www.w3.org/2000/svg" xmlns:xlink="http://www.w3.org/1999/xlink" x="0px" y="0px"
	 viewBox="0 0 476.044 476.044" style="enable-background:new 0 0 476.044 476.044;" xml:space="preserve">
<g>
	<g>
		<path d="M412.718,41.22C380.908,14.709,340.769,0.263,299.36,0.422c-97.202,0.311-175.747,79.361-175.435,176.563
			c0.13,40.679,14.348,80.057,40.235,111.437L0,453.062l22.56,22.56l164.8-164c74.67,62.231,185.65,52.148,247.881-22.522
			S487.388,103.451,412.718,41.22z M299.36,325.382c-82.268,0-148.96-66.692-148.96-148.96s66.692-148.96,148.96-148.96
			s148.96,66.692,148.96,148.96c0,0,0,0,0,0C448.232,258.654,381.592,325.294,299.36,325.382z"/>
	</g>
</g>
<g>
</g>
<g>
</g>
<g>
</g>
<g>
</g>
<g>
</g>
<g>
</g>
<g>
</g>
<g>
</g>
<g>
</g>
<g>
</g>
<g>
</g>
<g>
</g>
<g>
</g>
<g>
</g>
<g>
</g>
</svg>
