<?xml version="1.0" encoding="UTF-8"?>
<svg width="11px" height="11px" viewBox="0 0 11 11" version="1.1" xmlns="http://www.w3.org/2000/svg" xmlns:xlink="http://www.w3.org/1999/xlink">
    <!-- Generator: Sketch 59 (86127) - https://sketch.com -->
    <title>Star - On</title>
    <desc>Created with Sketch.</desc>
    <g id="Symbols" stroke="none" stroke-width="1" fill="none" fill-rule="evenodd">
        <g id="Product-Thumbnail" transform="translate(-45.000000, -326.000000)" fill="#131313" fill-rule="nonzero">
            <g id="Rating" transform="translate(0.000000, 326.000000)">
                <g id="Star---On" transform="translate(45.000000, 0.000000)">
                    <path d="M10.7617473,4.06426418 L6.98080731,4.06426418 L5.72814673,0.164483888 C5.6958895,0.0663377749 5.60426132,0 5.50095552,0 C5.39764971,0 5.30602153,0.0663377749 5.27376431,0.164483888 L4.02014713,4.06426418 L0.23920712,4.06426418 C0.136915528,4.06424537 0.0459379827,4.12929106 0.0128618342,4.22609296 C-0.0202143143,4.32289486 0.0119354997,4.43001662 0.0928481514,4.49260384 L3.10899081,6.82754527 L1.85393874,10.6869071 C1.82190714,10.7854585 1.85698367,10.893428 1.94081859,10.954333 C2.0246535,11.015238 2.13817196,11.0152208 2.2219885,10.9542906 L5.50047722,8.57247334 L8.77896594,10.9542906 C8.86278248,11.0152208 8.97630094,11.015238 9.06013585,10.954333 C9.14397077,10.893428 9.1790473,10.7854585 9.1470157,10.6869071 L7.89196363,6.82754527 L10.9071497,4.49260384 C10.9879248,4.43012458 11.0201187,4.32324659 10.9872925,4.22654429 C10.9544664,4.129842 10.8638633,4.06465294 10.7617473,4.06426418 Z" id="Star"></path>
                </g>
            </g>
        </g>
    </g>
</svg>