<?xml version="1.0" encoding="iso-8859-1"?>
<!-- Generator: Adobe Illustrator 19.0.0, SVG Export Plug-In . SVG Version: 6.00 Build 0)  -->
<svg version="1.1" id="Capa_1" xmlns="http://www.w3.org/2000/svg" xmlns:xlink="http://www.w3.org/1999/xlink" x="0px" y="0px"
	 viewBox="0 0 509.6 509.6" style="enable-background:new 0 0 509.6 509.6;" xml:space="preserve">
<g>
	<g>
		<path d="M344,334.96c34.938-41.44,53.995-93.958,53.76-148.16c0-79.529-64.471-144-144-144s-144,64.471-144,144
			c-0.279,54.182,18.719,106.698,53.6,148.16C95.208,346.755,35.571,387.643,0,446.96l27.36,16
			c36.03-60.156,100.156-97.885,170.24-100.16c34.496,20.585,77.504,20.585,112,0c71.505,2.718,136.593,42,172.32,104l27.68-16
			C474.14,389.695,413.559,347.318,344,334.96z M253.76,351.44c-75.2,0-115.2-96.32-115.2-164.64c0-63.623,51.577-115.2,115.2-115.2
			c63.623,0,115.2,51.577,115.2,115.2C368.96,255.76,328.96,351.44,253.76,351.44z"/>
	</g>
</g>
<g>
</g>
<g>
</g>
<g>
</g>
<g>
</g>
<g>
</g>
<g>
</g>
<g>
</g>
<g>
</g>
<g>
</g>
<g>
</g>
<g>
</g>
<g>
</g>
<g>
</g>
<g>
</g>
<g>
</g>
</svg>
